<svg width="128" height="128" viewBox="0 0 128 128" fill="none" xmlns="http://www.w3.org/2000/svg">
    <circle cx="64" cy="64" r="64" fill="#3569F0"/>
    <path d="M57.7418 78.6484C57.8077 74.7253 58.2528 71.6264 59.0769 69.3517C59.9011 67.0769 61.5824 64.5549 64.1209 61.7857L70.5989 55.1099C73.3681 51.978 74.7528 48.6154 74.7528 45.022C74.7528 41.5604 73.8462 38.8571 72.033 36.9121C70.2198 34.9341 67.5824 33.9451 64.1209 33.9451C60.7583 33.9451 58.055 34.8352 56.011 36.6154C53.967 38.3956 52.9451 40.7857 52.9451 43.7857H43.7967C43.8626 38.4451 45.7583 34.1429 49.4835 30.8791C53.2418 27.5824 58.1209 25.9341 64.1209 25.9341C70.3517 25.9341 75.1978 27.6154 78.6594 30.978C82.1539 34.3077 83.9011 38.8901 83.9011 44.7253C83.9011 50.4945 81.2308 56.1813 75.8901 61.7857L70.5 67.1264C68.0934 69.7967 66.8901 73.6374 66.8901 78.6484H57.7418ZM57.3462 94.3242C57.3462 92.8407 57.7912 91.6044 58.6813 90.6154C59.6044 89.5934 60.9561 89.0824 62.7363 89.0824C64.5165 89.0824 65.8681 89.5934 66.7912 90.6154C67.7143 91.6044 68.1758 92.8407 68.1758 94.3242C68.1758 95.8077 67.7143 97.044 66.7912 98.033C65.8681 98.989 64.5165 99.467 62.7363 99.467C60.9561 99.467 59.6044 98.989 58.6813 98.033C57.7912 97.044 57.3462 95.8077 57.3462 94.3242Z" fill="white"/>
</svg>